<?xml version="1.0" standalone="no"?>
<!DOCTYPE svg PUBLIC "-//W3C//DTD SVG 20010904//EN"
 "http://www.w3.org/TR/2001/REC-SVG-20010904/DTD/svg10.dtd">
<svg version="1.0" xmlns="http://www.w3.org/2000/svg"
 width="700.000000pt" height="700.000000pt" viewBox="0 0 700.000000 700.000000"
 preserveAspectRatio="xMidYMid meet">
<metadata>
Created by potrace 1.14, written by Peter Selinger 2001-2017
</metadata>
<g transform="translate(0.000000,700.000000) scale(0.100000,-0.100000)"
fill="#000000" stroke="none">
<path d="M2507 6124 c-1 -1 -42 -5 -92 -8 -196 -14 -517 -81 -650 -135 -11 -5
-58 -23 -105 -41 -904 -351 -1545 -1196 -1648 -2170 -9 -86 -8 -490 1 -560 57
-427 177 -766 389 -1107 44 -72 187 -265 238 -323 307 -347 674 -598 1100
-750 103 -37 306 -94 365 -103 17 -3 59 -10 93 -17 66 -12 84 -14 217 -26 106
-10 2895 -10 3005 0 201 18 405 75 595 168 73 35 83 41 200 116 371 239 648
643 744 1084 30 137 36 211 35 398 -2 343 -90 637 -282 935 -120 187 -310 377
-502 501 -106 69 -107 69 -190 110 -129 62 -304 123 -400 139 -19 3 -42 8 -51
11 -46 13 -201 26 -341 28 -70 1 -129 4 -131 6 -2 3 -16 39 -31 80 -72 190
-216 445 -358 634 -85 112 -283 321 -393 413 -414 348 -929 561 -1474 609 -64
6 -329 12 -334 8z m253 -588 c52 -3 104 -8 115 -10 11 -2 43 -7 70 -10 28 -4
95 -18 151 -31 595 -140 1103 -550 1364 -1099 67 -140 73 -157 109 -276 60
-197 98 -251 207 -295 56 -23 69 -24 313 -25 139 0 288 -5 329 -11 408 -57
770 -346 920 -735 64 -167 91 -390 69 -564 -47 -373 -267 -694 -600 -878 -132
-73 -277 -118 -437 -136 -54 -7 -2872 -8 -2915 -1 -16 2 -53 6 -80 9 -87 9
-216 36 -321 66 -697 202 -1235 763 -1413 1475 -38 151 -54 284 -55 460 -1
218 7 300 50 486 134 592 539 1101 1089 1369 190 93 416 166 575 185 30 4 58
9 61 11 3 2 66 6 140 10 74 4 136 8 137 10 2 1 9 1 15 -1 7 -2 55 -6 107 -9z"/>
</g>
</svg>
